# xmcd
# Track frame offsets:
# 150
# 13175
# 28045
# 39957
# 48350
# 58940
# 72000
# 83975
# 93950
# 106850
# 121312
# 131437
# 148325
# 156950
# 169087
# 179550
# 189675
# 202550
# 213877
# 227295
#
# Disc length: 3184 seconds
# Revision: 0
# Processed by: cddbd v1.5.2PL0 Copyright (c) Steve Scherf et al.
# Submitted via: VisiTrax 2.10.3.257 - For more info visit www.synapsa.com
#
DISCID=0c0c6e14
DTITLE=Little, Jimmy - 20 Golden Country Greats
DYEAR=1992
DGENRE=
TTITLE0=Baby Blue
TTITLE1=May the force be with you always
TTITLE2=I love you because
TTITLE3=One Dozen Roses
TTITLE4=Ain't it good to feel this way
TTITLE5=Love me Tender
TTITLE6=From Woman to Woman
TTITLE7=Six Days on the Road
TTITLE8=Kawilga
TTITLE9=Travellin Minstrel Man
TTITLE10=Royal Telephone
TTITLE11=Winterwood
TTITLE12=I can't stop Loving you
TTITLE13=Sat Again
TTITLE14=He'll haver to go
TTITLE15=There's a Heartache following me
TTITLE16=A man called Peter
TTITLE17=Near You
TTITLE18=All My Roads lead back to you
TTITLE19=Ring of Fire
EXTD=
EXTT0=
EXTT1=
EXTT2=
EXTT3=
EXTT4=
EXTT5=
EXTT6=
EXTT7=
EXTT8=
EXTT9=
EXTT10=
EXTT11=
EXTT12=
EXTT13=
EXTT14=
EXTT15=
EXTT16=
EXTT17=
EXTT18=
EXTT19=
PLAYORDER=
